# xmcd
#
# Track frame offsets:
#	150
#	14491
#	44475
#	56095
#	71914
#	83467
#	96666
#	114681
#	125410
#	137600
#	149969
#	160984
#	175942
#	195434
#	209758
#	224954
#	239070
#	253868
#	264710
#	281446
#	297938
#
# Disc length: 4468 seconds
#
# Revision: 3
# Processed by: cddbd v1.5.1PL2 Copyright (c) Steve Scherf et al.
# Submitted via: audiograbber 1.83.01
#
DISCID=69117215
DTITLE=cesar menotti and fabiano - palavras de amor ao vivo
DYEAR=2005
DGENRE=Other
TTITLE0=como um anjo
TTITLE1=tentei te esquecer, coracao ta em pedacos, fica comigo
TTITLE2=a carta
TTITLE3=sem medo de ser feliz
TTITLE4=mensagem para ela
TTITLE5=esperando na janela
TTITLE6=leilao
TTITLE7=aqui nao
TTITLE8=melhor lugar que BH
TTITLE9=bao tamem
TTITLE10=sempre homem
TTITLE11=paixao mineira
TTITLE12=ta chovendo demais, onde tem som de viola
TTITLE13=telefone mudo
TTITLE14=amargurado
TTITLE15=na hora do adeus
TTITLE16=caso marcado
TTITLE17=to morrendo de saudade
TTITLE18=nova york, o que tiver que vir, vira
TTITLE19=me apaixonei (a primeira vez que eu te vi)
TTITLE20=cana verde, erguei as maos
EXTD=
EXTT0=
EXTT1=
EXTT2=
EXTT3=
EXTT4=
EXTT5=
EXTT6=
EXTT7=
EXTT8=
EXTT9=
EXTT10=
EXTT11=
EXTT12=
EXTT13=
EXTT14=
EXTT15=
EXTT16=
EXTT17=
EXTT18=
EXTT19=
EXTT20=
PLAYORDER=
